HIERARCHY
ROOT reference
{
  OFFSET -65.3212 -1.93545 -120.338
  CHANNELS 6 Xposition Yposition Zposition Zrotation Xrotation Yrotation
  JOINT Hips
  {
    OFFSET 0 78.7191 0
    CHANNELS 3 Zrotation Xrotation Yrotation
    JOINT Chest
    {
      OFFSET 0 8.7983 -4.7612
      CHANNELS 3 Zrotation Xrotation Yrotation
      JOINT Chest2
      {
        OFFSET 0 8.0291 0.4195
        CHANNELS 3 Zrotation Xrotation Yrotation
        JOINT Chest3
        {
          OFFSET 0 9.9351 -2.2114
          CHANNELS 3 Zrotation Xrotation Yrotation
          JOINT Neck
          {
            OFFSET 0 22.3885 -0.4656
            CHANNELS 3 Zrotation Xrotation Yrotation
            JOINT Head
            {
              OFFSET -0.0001 12.643 3.4389
              CHANNELS 3 Zrotation Xrotation Yrotation
              End Site
              {
                OFFSET 0.0001 17.6655 0.5274
              }
            }
          }
          JOINT LeftCollar
          {
            OFFSET 2.2603 21.606 7.4023
            CHANNELS 3 Zrotation Xrotation Yrotation
            JOINT LeftShoulder
            {
              OFFSET 13.5163 -1.1332 -5.0146
              CHANNELS 3 Zrotation Xrotation Yrotation
              JOINT LeftElbow
              {
                OFFSET -0.0995 -28.05 -0.2431
                CHANNELS 3 Zrotation Xrotation Yrotation
                JOINT LeftWrist
                {
                  OFFSET 0.0679 -23.3996 -0.1402
                  CHANNELS 3 Zrotation Xrotation Yrotation
                  JOINT LeftFinger1
                  {
                    OFFSET 0.7932 -9.069 2.5189
                    CHANNELS 3 Zrotation Xrotation Yrotation
                    JOINT LeftFinger11
                    {
                      OFFSET -0.8272 -3.3923 0.5977
                      CHANNELS 3 Zrotation Xrotation Yrotation
                      JOINT LeftFinger12
                      {
                        OFFSET -0.5649 -2.3158 0.4082
                        CHANNELS 3 Zrotation Xrotation Yrotation
                        End Site
                        {
                          OFFSET -0.4919 -1.6479 0.2673
                        }
                      }
                    }
                  }
                  JOINT LeftFinger2
                  {
                    OFFSET 0.9159 -9.2044 0.2193
                    CHANNELS 3 Zrotation Xrotation Yrotation
                    JOINT LeftFinger21
                    {
                      OFFSET 0.0117 -4.1944 -0.0248
                      CHANNELS 3 Zrotation Xrotation Yrotation
                      JOINT LeftFinger22
                      {
                        OFFSET 0.0071 -2.3249 -0.0142
                        CHANNELS 3 Zrotation Xrotation Yrotation
                        End Site
                        {
                          OFFSET -0.1475 -2.0882 0.0028
                        }
                      }
                    }
                  }
                  JOINT LeftFinger3
                  {
                    OFFSET 0.6113 -8.7231 -2.0637
                    CHANNELS 3 Zrotation Xrotation Yrotation
                    JOINT LeftFinger31
                    {
                      OFFSET -0.1927 -3.8059 -0.2383
                      CHANNELS 3 Zrotation Xrotation Yrotation
                      JOINT LeftFinger32
                      {
                        OFFSET -0.1091 -2.1688 -0.1362
                        CHANNELS 3 Zrotation Xrotation Yrotation
                        End Site
                        {
                          OFFSET -0.2358 -1.9176 -0.0906
                        }
                      }
                    }
                  }
                  JOINT LeftFinger4
                  {
                    OFFSET -0.6151 -8.0947 -3.5641
                    CHANNELS 3 Zrotation Xrotation Yrotation
                    JOINT LeftFinger41
                    {
                      OFFSET -0.4882 -2.341 -0.6462
                      CHANNELS 3 Zrotation Xrotation Yrotation
                      JOINT LeftFinger42
                      {
                        OFFSET -0.3575 -1.7167 -0.4742
                        CHANNELS 3 Zrotation Xrotation Yrotation
                        End Site
                        {
                          OFFSET -0.4187 -1.5237 -0.3496
                        }
                      }
                    }
                  }
                  JOINT LeftFinger0
                  {
                    OFFSET -1.42 -1.8761 1.4223
                    CHANNELS 3 Zrotation Xrotation Yrotation
                    JOINT LeftFinger01
                    {
                      OFFSET -1.1471 -3.4929 2.6334
                      CHANNELS 3 Zrotation Xrotation Yrotation
                      JOINT LeftFinger02
                      {
                        OFFSET -0.823 -2.3 1.6571
                        CHANNELS 3 Zrotation Xrotation Yrotation
                        End Site
                        {
                          OFFSET -0.5822 -1.6914 1.1582
                        }
                      }
                    }
                  }
                }
              }
            }
          }
          JOINT RightCollar
          {
            OFFSET -2.2603 21.606 7.4023
            CHANNELS 3 Zrotation Xrotation Yrotation
            JOINT RightShoulder
            {
              OFFSET -13.5187 -1.1334 -5.0155
              CHANNELS 3 Zrotation Xrotation Yrotation
              JOINT RightElbow
              {
                OFFSET 0.0994 -28.0499 -0.2431
                CHANNELS 3 Zrotation Xrotation Yrotation
                JOINT RightWrist
                {
                  OFFSET -0.0679 -23.3996 -0.1402
                  CHANNELS 3 Zrotation Xrotation Yrotation
                  JOINT RightFinger1
                  {
                    OFFSET -0.7932 -9.0691 2.5189
                    CHANNELS 3 Zrotation Xrotation Yrotation
                    JOINT RightFinger11
                    {
                      OFFSET 0.8272 -3.3923 0.5977
                      CHANNELS 3 Zrotation Xrotation Yrotation
                      JOINT RightFinger12
                      {
                        OFFSET 0.565 -2.3158 0.4082
                        CHANNELS 3 Zrotation Xrotation Yrotation
                        End Site
                        {
                          OFFSET 0.4919 -1.6479 0.2673
                        }
                      }
                    }
                  }
                  JOINT RightFinger2
                  {
                    OFFSET -0.916 -9.2044 0.2193
                    CHANNELS 3 Zrotation Xrotation Yrotation
                    JOINT RightFinger21
                    {
                      OFFSET -0.0117 -4.1944 -0.0248
                      CHANNELS 3 Zrotation Xrotation Yrotation
                      JOINT RightFinger22
                      {
                        OFFSET -0.0071 -2.3249 -0.0142
                        CHANNELS 3 Zrotation Xrotation Yrotation
                        End Site
                        {
                          OFFSET 0.1475 -2.0882 0.0028
                        }
                      }
                    }
                  }
                  JOINT RightFinger3
                  {
                    OFFSET -0.6113 -8.7231 -2.0637
                    CHANNELS 3 Zrotation Xrotation Yrotation
                    JOINT RightFinger31
                    {
                      OFFSET 0.1927 -3.8059 -0.2383
                      CHANNELS 3 Zrotation Xrotation Yrotation
                      JOINT RightFinger32
                      {
                        OFFSET 0.1091 -2.1688 -0.1362
                        CHANNELS 3 Zrotation Xrotation Yrotation
                        End Site
                        {
                          OFFSET 0.2358 -1.9176 -0.0906
                        }
                      }
                    }
                  }
                  JOINT RightFinger4
                  {
                    OFFSET 0.6151 -8.0947 -3.564
                    CHANNELS 3 Zrotation Xrotation Yrotation
                    JOINT RightFinger41
                    {
                      OFFSET 0.4882 -2.341 -0.6462
                      CHANNELS 3 Zrotation Xrotation Yrotation
                      JOINT RightFinger42
                      {
                        OFFSET 0.3574 -1.7166 -0.4742
                        CHANNELS 3 Zrotation Xrotation Yrotation
                        End Site
                        {
                          OFFSET 0.4187 -1.5237 -0.3496
                        }
                      }
                    }
                  }
                  JOINT RightFinger0
                  {
                    OFFSET 1.4199 -1.8761 1.4221
                    CHANNELS 3 Zrotation Xrotation Yrotation
                    JOINT RightFinger01
                    {
                      OFFSET 1.1472 -3.4929 2.6336
                      CHANNELS 3 Zrotation Xrotation Yrotation
                      JOINT RightFinger02
                      {
                        OFFSET 0.8229 -2.3 1.6571
                        CHANNELS 3 Zrotation Xrotation Yrotation
                        End Site
                        {
                          OFFSET 0.5822 -1.6914 1.1582
                        }
                      }
                    }
                  }
                }
              }
            }
          }
        }
      }
    }
    JOINT RightHip
    {
      OFFSET -9.412 3.9771 -0.7758
      CHANNELS 3 Zrotation Xrotation Yrotation
      JOINT RightKnee
      {
        OFFSET -0.7531 -40.938 0
        CHANNELS 3 Zrotation Xrotation Yrotation
        JOINT RightAnkle
        {
          OFFSET 0 -40.1986 0
          CHANNELS 3 Zrotation Xrotation Yrotation
          JOINT RightToe
          {
            OFFSET 0 -4.4182 9.239
            CHANNELS 3 Zrotation Xrotation Yrotation
            End Site
            {
              OFFSET 0 0 6.1981
            }
          }
        }
      }
    }
    JOINT LeftHip
    {
      OFFSET 9.4119 3.9773 -0.7758
      CHANNELS 3 Zrotation Xrotation Yrotation
      JOINT LeftKnee
      {
        OFFSET 0.7532 -40.9383 0
        CHANNELS 3 Zrotation Xrotation Yrotation
        JOINT LeftAnkle
        {
          OFFSET 0 -40.1986 0
          CHANNELS 3 Zrotation Xrotation Yrotation
          JOINT LeftToe
          {
            OFFSET 0 -4.4182 9.239
            CHANNELS 3 Zrotation Xrotation Yrotation
            End Site
            {
              OFFSET 0 0 6.1981
            }
          }
        }
      }
    }
  }
}
MOTION
Frames:	8
Frame Time:	0.0333333
21.4525 -65.5353 -49.2429 0 0 -0 12.7998 10.1781 -55.1364 -0.152906 -2.78443 1.52626 -0.231806 -5.57195 3.05057 -0.231804 -5.57194 3.05056 0.173764 0.714199 -4.39516 6.57719 -0.317223 -2.2509 2.95989 -2.02064 -30.3109 43.502 -43.8471 23.0439 -4.56927 -59.5029 15.8128 5.80968 7.85525 22.8574 -3.03607 13.5265 -2.18704 -35.3164 20.4566 4.66817 -36.3887 20.9687 4.99557 -0.995761 1.76439 1.17295 -42.7837 24.7469 5.54517 -8.91097 5.62732 -0.442351 -6.5756 6.72671 5.05895 -13.8818 9.68156 -0.672542 -15.2672 10.6403 -0.610731 13.8073 -0.977093 8.79146 -17.7354 12.2742 -1.06125 -8.74839 6.0287 -1.00074 -11.5752 -16.7454 -49.4479 -4.53163 0.273981 0.313058 8.53069 10.6946 -3.07814 -7.7605 -1.36625 37.8348 -87.6209 -41.9503 -55.1812 36.2307 -47.4454 8.86455 -32.5888 17.3461 -43.8839 11.6479 14.279 0.995086 44.2764 13.1569 -6.11048 45.4054 13.4037 -6.38646 6.62924 3.2919 -1.2646 52.3753 15.6204 -6.40191 15.3504 5.19879 -0.333562 12.9293 7.02458 -5.55443 21.1159 8.14441 -0.317295 22.7006 8.73509 -0.460743 -8.95513 3.95752 -6.76231 25.5475 9.66341 0.0104901 15.2476 5.79322 0.52899 9.91523 -19.9007 48.0804 1.41319 -0.442822 -1.52296 -7.19738 14.537 5.60457 -43.3875 -8.30114 -6.16116 169.678 25.2744 -152.272 -2.43258 -6.37218 45.8087 -13.1934 28.273 -7.08627 50.4875 -13.9874 24.3784 179.536 26.8818 178.361 8.12361 -12.218 -41.9308 9.79694 54.2876 17.6988 
21.4772 -65.6093 -49.1855 0 0 -0 12.7369 10.122 -54.9692 -0.193072 -2.66974 1.45316 -0.318731 -5.34351 2.90202 -0.318731 -5.3435 2.90201 -0.235225 0.581648 -4.1095 6.99928 -0.542254 -1.92774 2.84292 -2.02822 -30.0436 44.0705 -43.7734 23.2784 -5.68746 -60.7453 15.349 6.41754 8.56917 22.3444 -3.0353 13.526 -2.18699 -35.3132 20.4551 4.66722 -36.3828 20.9659 4.99375 -0.996053 1.76275 1.17054 -42.7798 24.7451 5.54382 -8.90831 5.62563 -0.442343 -6.57544 6.72411 5.05506 -13.8799 9.68028 -0.672613 -15.2672 10.6403 -0.610729 13.7971 -0.973067 8.79034 -17.7314 12.2715 -1.0614 -8.74833 6.02939 -1.00287 -11.5651 -16.7367 -49.4306 -4.53054 0.273679 0.313104 8.52684 10.6901 -3.07647 -8.04241 -1.41292 37.6241 -87.4031 -41.8522 -54.9269 36.1926 -49.1936 9.21931 -32.4993 18.2993 -43.8282 11.6424 14.268 0.993805 44.2584 13.153 -6.10611 45.3868 13.3997 -6.38189 6.62922 3.2919 -1.26458 52.3533 15.6157 -6.39651 15.3372 5.19442 -0.332685 12.9237 7.02112 -5.54682 21.1088 8.14171 -0.316685 22.685 8.7293 -0.459231 -8.94313 3.95616 -6.75521 25.5294 9.65674 0.0119944 15.2345 5.78821 0.529223 9.90482 -19.8903 48.0583 1.41177 -0.443346 -1.52147 -7.18867 14.5218 5.59737 -43.8179 -8.28409 -6.07228 169.666 25.3306 -152.234 -2.61248 -6.05222 46.21 -13.1981 28.0352 -7.13085 50.7219 -14.1063 24.0843 179.538 26.8155 178.252 8.22579 -12.1971 -42.24 9.77964 54.3866 17.5885 
21.4872 -65.6593 -49.1087 0 0 -0 12.6877 10.0483 -54.8021 -0.233676 -2.54416 1.34718 -0.407955 -5.09306 2.68789 -0.407955 -5.09306 2.6879 -0.650381 0.375028 -3.69262 7.27378 -0.772169 -1.57623 2.64936 -2.03405 -29.7928 44.7372 -43.4382 23.6373 -6.92331 -62.2305 14.9108 6.81948 9.3095 21.734 -3.03456 13.5254 -2.18695 -35.3101 20.4536 4.66626 -36.3769 20.9631 4.99191 -0.996379 1.76103 1.16816 -42.7759 24.7434 5.54254 -8.90563 5.62395 -0.442368 -6.57531 6.72146 5.05121 -13.878 9.679 -0.67268 -15.2672 10.6403 -0.610737 13.7576 -0.961925 8.77844 -17.7274 12.2688 -1.06163 -8.74829 6.03008 -1.00501 -11.555 -16.7281 -49.4134 -4.52943 0.27342 0.313159 8.52301 10.6856 -3.07478 -8.34489 -1.45764 37.3982 -87.0738 -41.8821 -54.6065 36.1266 -51.0709 9.34946 -32.5023 19.1114 -43.4856 11.6368 14.2571 0.992496 44.2053 13.1412 -6.09325 45.315 13.3842 -6.36416 6.62922 3.2919 -1.26459 52.2887 15.6021 -6.38054 15.3241 5.19006 -0.3318 12.9181 7.01763 -5.53922 21.0811 8.13131 -0.314298 22.6695 8.72353 -0.45774 -8.93112 3.95482 -6.74808 25.5113 9.65008 0.0134969 15.2214 5.78322 0.529438 9.86451 -19.8501 47.9728 1.41032 -0.443878 -1.52 -7.17994 14.5066 5.5902 -44.3266 -8.30479 -5.99765 169.656 25.3954 -152.225 -2.86593 -5.6827 46.5925 -13.1874 27.8111 -7.16792 50.9163 -14.2086 23.8177 179.538 26.8142 178.159 8.34253 -12.1069 -42.4524 9.75239 54.5061 17.4337 
21.4922 -65.6776 -49.0153 0 0 -0 12.6399 9.96683 -54.6166 -0.293105 -2.41139 1.248 -0.534233 -4.82859 2.48696 -0.534231 -4.82859 2.48695 -1.06924 0.423755 -3.30345 7.68948 -1.03705 -1.10096 2.29374 -2.03939 -29.5879 45.5312 -43.1585 24.0163 -8.42883 -63.5594 14.1296 6.94899 9.97186 21.207 -3.0338 13.5249 -2.18694 -35.307 20.4521 4.66534 -36.371 20.9603 4.9901 -0.996704 1.75931 1.16575 -42.772 24.7416 5.54123 -8.90297 5.62226 -0.442364 -6.57515 6.71886 5.04735 -13.8762 9.6777 -0.672746 -15.2644 10.6384 -0.610888 13.7181 -0.950769 8.76653 -17.7234 12.266 -1.06181 -8.74828 6.03079 -1.00715 -11.524 -16.702 -49.3585 -4.52482 0.272285 0.31338 8.5192 10.6812 -3.0731 -8.67062 -1.52113 37.0918 -86.6975 -41.8264 -54.1807 36.12 -53.0562 9.35448 -32.6528 19.8756 -43.0751 11.6233 14.2305 0.989342 44.1189 13.1221 -6.07231 45.2431 13.3687 -6.34642 6.62921 3.29189 -1.26458 52.1832 15.5797 -6.35454 15.311 5.18571 -0.330931 12.9019 7.00509 -5.52748 21.0533 8.12091 -0.311919 22.6316 8.70945 -0.454105 -8.90114 3.95011 -6.73155 25.4672 9.63388 0.0172188 15.2084 5.7782 0.529644 9.82426 -19.8097 47.8874 1.40614 -0.445434 -1.51571 -7.17124 14.4914 5.58304 -44.8581 -8.36063 -5.94342 169.654 25.4485 -152.244 -3.09778 -5.26548 46.9076 -13.1554 27.5973 -7.19561 51.0655 -14.3295 23.5669 179.537 26.858 178.075 8.47831 -12.0257 -42.6164 9.61605 54.3918 17.0925 
21.4962 -65.6755 -48.9196 0 0 -0 12.5492 9.89282 -54.3435 -0.330631 -2.26264 1.11038 -0.618018 -4.53124 2.21024 -0.618018 -4.53125 2.21026 -1.48759 0.433004 -2.89006 7.83141 -1.39829 -0.634319 1.80366 -2.04688 -29.4718 46.7634 -42.5474 24.5592 -10.5195 -65.0412 12.8813 7.05202 10.6132 20.9957 -3.03305 13.5244 -2.1869 -35.2893 20.4435 4.65999 -36.3651 20.9575 4.98829 -0.997022 1.75759 1.16334 -42.7553 24.7341 5.5357 -8.9003 5.62057 -0.442371 -6.57501 6.71623 5.04348 -13.8743 9.67643 -0.672809 -15.2552 10.632 -0.611376 13.6446 -0.930805 8.74305 -17.7194 12.2633 -1.062 -8.74826 6.03148 -1.00929 -11.493 -16.676 -49.3037 -4.52019 0.271152 0.313627 8.51537 10.6767 -3.07143 -9.2145 -1.57635 36.8 -86.1379 -41.9005 -53.6215 35.7402 -55.2887 9.04085 -32.8001 20.6449 -42.5248 11.6024 14.1893 0.984476 44.0003 13.0958 -6.04359 45.1053 13.3388 -6.31252 6.62305 3.28628 -1.25839 52.0388 15.549 -6.31899 15.2738 5.17334 -0.328454 12.8769 6.98571 -5.50939 21.0001 8.10092 -0.307375 22.5796 8.69011 -0.449128 -8.85479 3.94286 -6.70599 25.3989 9.60876 0.0228924 15.1678 5.76276 0.530289 9.74734 -19.7325 47.7235 1.40201 -0.446936 -1.51146 -7.14429 14.4443 5.56083 -45.3698 -8.35818 -5.94326 169.636 25.5466 -152.285 -3.2354 -4.89246 47.2593 -13.1235 27.3838 -7.22312 51.2496 -14.6095 23.2992 179.534 26.9544 178 8.76285 -11.8673 -42.7637 9.57305 54.4126 16.9606 
21.5141 -65.6472 -48.8034 0 0 -0 12.4473 9.8261 -54.0187 -0.356637 -2.08457 0.92216 -0.680299 -4.17453 1.83313 -0.680298 -4.17453 1.83312 -1.98463 0.0671138 -2.36539 7.9367 -1.49495 -0.230505 1.34316 -2.05582 -29.4322 48.5335 -41.4967 25.3264 -13.4717 -66.8668 10.9974 7.28853 11.2639 21.1207 -3.03061 13.5125 -2.18435 -35.2716 20.435 4.65468 -36.3368 20.9441 4.97947 -0.997323 1.75588 1.16093 -42.7279 24.7217 5.52653 -8.89762 5.61887 -0.442355 -6.57486 6.71358 5.03962 -13.8642 9.6694 -0.67318 -15.246 10.6257 -0.611881 13.5712 -0.910826 8.71965 -17.7154 12.2605 -1.06221 -8.74821 6.03217 -1.01143 -11.4399 -16.6323 -49.2064 -4.51293 0.269369 0.313992 8.51153 10.6722 -3.06975 -9.68282 -1.61266 36.5441 -85.5504 -42.2874 -53.0884 34.8952 -57.7385 8.34025 -32.9072 21.4331 -41.5559 11.5815 14.1481 0.979565 43.8513 13.0627 -6.00762 44.9675 13.3089 -6.27867 6.6169 3.28068 -1.25217 51.8571 15.5102 -6.27443 15.2366 5.161 -0.325987 12.8519 6.96633 -5.49129 20.9468 8.08095 -0.302853 22.5079 8.66346 -0.442304 -8.80841 3.93563 -6.68044 25.3307 9.58363 0.0285482 15.1272 5.74729 0.530912 9.67068 -19.655 47.5599 1.39534 -0.449427 -1.50464 -7.11733 14.3973 5.53865 -45.9895 -8.40756 -5.95541 169.606 25.6764 -152.322 -3.49304 -4.56254 47.7406 -13.0591 27.4067 -7.19745 51.4343 -14.9808 23.0178 179.529 27.1323 177.95 8.8909 -11.4568 -43.1237 9.68124 54.499 17.2272 
21.5398 -65.5954 -48.7027 0 0 -0 12.2803 9.80467 -53.5217 -0.373823 -1.88018 0.729297 -0.724251 -3.76495 1.44749 -0.724252 -3.76496 1.44748 -2.40685 -0.0663938 -2.05652 8.05223 -2.12441 0.461526 1.04613 -2.06189 -29.3841 50.586 -40.6254 26.1064 -17.5184 -68.4366 7.88856 7.56752 11.6954 21.8974 -3.02821 13.5007 -2.18183 -35.2388 20.4192 4.64481 -36.3084 20.9306 4.97069 -0.99766 1.75423 1.15855 -42.687 24.7031 5.51287 -8.89497 5.61719 -0.442385 -6.56697 6.70268 5.02522 -13.8542 9.66245 -0.673549 -15.2368 10.6193 -0.612359 13.4694 -0.884414 8.68506 -17.6935 12.2455 -1.06325 -8.74818 6.03283 -1.01357 -11.387 -16.5885 -49.1091 -4.5028 0.266908 0.314518 8.50771 10.6678 -3.06807 -10.2034 -1.75076 35.9396 -85.1187 -42.3943 -52.6166 35.0179 -60.1852 7.97753 -33.3797 22.0779 -40.5325 11.5516 14.089 0.972561 43.6734 13.023 -5.96474 44.77 13.2658 -6.23025 6.61077 3.27507 -1.24599 51.6402 15.4637 -6.22134 15.1995 5.14865 -0.323527 12.8143 6.94241 -5.46285 20.8759 8.05435 -0.296874 22.4362 8.6368 -0.435512 -8.73723 3.92449 -6.64134 25.2261 9.54514 0.0371734 15.0866 5.7318 0.531527 9.56916 -19.5519 47.342 1.38869 -0.451897 -1.4978 -7.0904 14.3501 5.51647 -46.4604 -8.30916 -6.11505 169.59 25.8151 -152.414 -3.43092 -3.86017 48.0435 -13.0169 26.8271 -7.28378 51.745 -15.5564 22.6642 179.524 27.3102 177.864 9.31823 -11.263 -43.4522 9.57075 54.6242 16.8436 
21.5305 -65.5066 -48.5457 0 0 -0 12.271 9.78755 -53.3038 -0.398561 -1.70086 0.514899 -0.782337 -3.40517 1.01866 -0.782341 -3.40518 1.01865 -2.80447 -0.209128 -1.31474 8.16279 -2.62705 0.946585 0.908391 -2.06459 -29.3176 53.1103 -39.1082 27.0834 -23.1027 -70.1826 3.52947 8.02616 11.9956 23.0647 -3.02576 13.4889 -2.17935 -35.1854 20.3934 4.62875 -36.261 20.9082 4.95605 -0.997984 1.75248 1.15614 -42.6298 24.6772 5.49387 -8.88053 5.60805 -0.44237 -6.55904 6.69177 5.01081 -13.8346 9.64883 -0.674241 -15.2182 10.6065 -0.613371 13.3677 -0.857995 8.65053 -17.6715 12.2304 -1.0643 -8.7289 6.01794 -1.00809 -11.3111 -16.527 -48.9647 -4.49265 0.264409 0.315026 8.50391 10.6633 -3.06639 -10.5473 -1.7717 35.6841 -84.583 -42.8527 -52.0965 34.298 -62.8302 7.10741 -33.7209 22.787 -39.1268 11.5217 14.0299 0.965571 43.4679 12.977 -5.91536 44.5725 13.2226 -6.18202 6.60461 3.26945 -1.23977 51.3899 15.4098 -6.16025 15.1386 5.1284 -0.319506 12.7768 6.91847 -5.43446 20.789 8.02168 -0.289553 22.3461 8.60324 -0.426988 -8.66607 3.91337 -6.60222 25.1215 9.50659 0.0457093 15.0461 5.71633 0.53213 9.45249 -19.4326 47.0908 1.37983 -0.455198 -1.48863 -7.06351 14.303 5.49434 -46.9912 -8.60966 -6.21578 169.575 25.9409 -152.539 -3.49811 -3.29859 48.223 -12.9389 26.6777 -7.28218 51.849 -15.8709 22.4663 179.515 27.6544 177.838 9.612 -10.8477 -43.8847 9.48786 54.7496 16.5577 
